<svg width="16" height="22" viewBox="0 0 16 22" fill="none" xmlns="http://www.w3.org/2000/svg">
<path d="M8.12 21.28C5.936 21.28 4.256 20.8413 3.08 19.964C1.904 19.0867 1.316 17.7613 1.316 15.988C1.316 15.2787 1.41867 14.6347 1.624 14.056H0.308V12.264H2.66C3.03333 11.8907 3.528 11.5547 4.144 11.256C4.77867 10.9387 5.432 10.6587 6.104 10.416C6.79467 10.1733 7.40133 9.968 7.924 9.8C8.44667 9.61333 8.78267 9.48267 8.932 9.408H0.308V7.616H11.004C11.1533 7.35467 11.256 7.084 11.312 6.804C11.3867 6.524 11.424 6.16933 11.424 5.74C11.424 4.86267 11.1253 4.18133 10.528 3.696C9.93067 3.192 8.99733 2.94 7.728 2.94C6.81333 2.94 5.94533 3.06133 5.124 3.304C4.32133 3.54667 3.60267 3.81733 2.968 4.116L2.268 1.904C2.97733 1.568 3.84533 1.288 4.872 1.064C5.89867 0.839999 6.89733 0.727999 7.868 0.727999C9.75333 0.727999 11.2373 1.12 12.32 1.904C13.4213 2.66933 13.972 3.84533 13.972 5.432C13.972 5.824 13.944 6.216 13.888 6.608C13.832 6.98133 13.7293 7.31733 13.58 7.616H15.12V9.408H12.684C12.3853 9.70667 11.9187 10.0147 11.284 10.332C10.6493 10.6307 9.98667 10.9107 9.296 11.172C8.60533 11.4333 7.98 11.6573 7.42 11.844C6.86 12.0307 6.496 12.1707 6.328 12.264H15.12V14.056H4.228C4.07867 14.336 3.976 14.5973 3.92 14.84C3.864 15.0827 3.836 15.4187 3.836 15.848C3.836 18.0133 5.33867 19.096 8.344 19.096C9.408 19.096 10.4347 18.9653 11.424 18.704C12.432 18.424 13.272 18.1347 13.944 17.836V20.104C13.3093 20.4027 12.46 20.6733 11.396 20.916C10.332 21.1587 9.24 21.28 8.12 21.28Z" fill="#1C62CD"/>
</svg>
