<svg width="156" height="39" viewBox="0 0 156 39" fill="none" xmlns="http://www.w3.org/2000/svg">
<path d="M15.1146 13.22C14.4666 15.812 13.5666 18.14 12.4146 20.204L14.0706 21.104C15.6066 21.968 16.9026 22.616 17.9586 23.048C19.0386 23.48 20.1666 23.696 21.3426 23.696C23.1666 23.696 24.9666 23.132 26.7426 22.004C26.0706 23.516 25.1586 24.62 24.0066 25.316C22.8546 26.012 21.6306 26.36 20.3346 26.36C19.1826 26.36 18.0426 26.12 16.9146 25.64C15.7866 25.16 14.4666 24.464 12.9546 23.552L10.9386 22.436C9.97856 23.708 8.91056 24.68 7.73456 25.352C6.58256 26.024 5.37056 26.36 4.09856 26.36C3.04256 26.36 2.23856 26.132 1.68656 25.676C1.11056 25.196 0.822562 24.56 0.822562 23.768C0.822562 22.76 1.09856 21.872 1.65056 21.104C2.17856 20.312 2.91056 19.7 3.84656 19.268C4.78256 18.812 5.80256 18.584 6.90656 18.584C7.81856 18.584 8.76656 18.74 9.75056 19.052C10.6146 17.3 11.2986 15.38 11.8026 13.292L12.7746 9.404L12.8826 9.008C11.7306 7.88 10.7706 6.536 10.0026 4.976C10.7946 6.08 11.8866 7.028 13.2786 7.82C14.1186 5.54 15.4266 3.74 17.2026 2.42C18.9786 1.1 20.9946 0.439999 23.2506 0.439999C24.6426 0.439999 25.9026 0.691999 27.0306 1.196C28.1586 1.676 28.9986 2.336 29.5506 3.176C29.6226 3.464 29.6586 3.8 29.6586 4.184C29.6586 5.72 29.2506 7.1 28.4346 8.324C27.6426 9.524 26.5626 10.472 25.1946 11.168C23.8266 11.84 22.3146 12.176 20.6586 12.176C18.9306 12.176 17.2746 11.78 15.6906 10.988L15.1146 13.22ZM23.0346 3.032C21.4266 3.032 20.0106 3.584 18.7866 4.688C17.5626 5.768 16.6986 7.22 16.1946 9.044C17.3946 9.404 18.6186 9.584 19.8666 9.584C21.9546 9.584 23.5386 9.128 24.6186 8.216C25.7226 7.304 26.3226 5.924 26.4186 4.076C25.4106 3.38 24.2826 3.032 23.0346 3.032ZM4.71056 23.912C5.93456 23.912 7.17056 23.06 8.41856 21.356C7.74656 21.14 7.06256 21.032 6.36656 21.032C5.47856 21.032 4.78256 21.224 4.27856 21.608C3.77456 21.968 3.52256 22.436 3.52256 23.012C3.52256 23.3 3.61856 23.528 3.81056 23.696C4.02656 23.84 4.32656 23.912 4.71056 23.912Z" fill="#E11F13"/>
<path d="M36.0995 26.36C34.4195 26.36 33.0155 25.976 31.8875 25.208C30.7595 24.44 29.9315 23.42 29.4035 22.148C29.1635 21.332 29.0435 20.492 29.0435 19.628C29.0435 17.54 29.7035 15.596 31.0235 13.796C32.3435 11.972 34.1195 10.532 36.3515 9.476C35.0075 10.7 33.9515 12.212 33.1835 14.012C32.4395 15.788 32.0675 17.744 32.0675 19.88C32.0675 20.696 32.1275 21.548 32.2475 22.436C33.0635 23.468 34.2875 23.984 35.9195 23.984C37.4795 23.984 38.8235 23.516 39.9515 22.58C41.1035 21.62 41.9675 20.276 42.5435 18.548C43.1195 16.796 43.3835 14.744 43.3355 12.392C42.7595 11.528 41.9915 11.096 41.0315 11.096C40.2635 11.096 39.6395 11.384 39.1595 11.96C38.6795 12.536 38.4395 13.292 38.4395 14.228C38.4395 15.02 38.6195 15.752 38.9795 16.424C39.3395 17.072 39.8555 17.636 40.5275 18.116C39.0155 17.924 37.8035 17.42 36.8915 16.604C36.0035 15.788 35.5595 14.768 35.5595 13.544C35.5595 12.632 35.7995 11.816 36.2795 11.096C36.7595 10.352 37.3955 9.788 38.1875 9.404C39.0035 8.996 39.8675 8.792 40.7795 8.792C41.9795 8.792 43.0475 9.14 43.9835 9.836C44.9195 10.532 45.6395 11.516 46.1435 12.788C46.2635 13.508 46.3235 14.264 46.3235 15.056C46.3235 17.288 45.8675 19.268 44.9555 20.996C44.0435 22.7 42.8075 24.02 41.2475 24.956C39.6875 25.892 37.9715 26.36 36.0995 26.36ZM61.0421 30.284C62.5541 30.932 63.9941 31.808 65.3621 32.912C65.0501 32.696 64.4621 32.468 63.5981 32.228C62.7581 32.012 61.7741 31.82 60.6461 31.652C59.9741 33.62 58.9061 35.312 57.4421 36.728C55.9781 38.144 53.8901 38.852 51.1781 38.852C49.8581 38.852 48.7301 38.636 47.7941 38.204C46.8821 37.772 46.0901 37.076 45.4181 36.116C45.1541 35.468 45.0221 34.796 45.0221 34.1C45.0221 33.092 45.3941 32.192 46.1381 31.4C46.8581 30.608 47.8901 29.984 49.2341 29.528C50.5781 29.096 52.1261 28.88 53.8781 28.88C55.3661 28.88 56.8421 29.048 58.3061 29.384L60.0701 22.256C58.2941 24.752 56.3981 26 54.3821 26C53.3741 26 52.4741 25.688 51.6821 25.064C50.8901 24.416 50.1461 23.492 49.4501 22.292C49.2101 21.092 49.0901 20 49.0901 19.016C49.0901 16.88 49.4981 15.044 50.3141 13.508C51.1301 11.948 52.2701 10.76 53.7341 9.944C55.2221 9.128 56.9621 8.72 58.9541 8.72C60.7301 8.72 62.3021 9.08 63.6701 9.8C65.0381 10.496 66.0821 11.456 66.8021 12.68C65.8421 12.176 64.8101 11.792 63.7061 11.528C62.6261 11.24 61.5341 11.096 60.4301 11.096C57.7661 11.096 55.7141 11.852 54.2741 13.364C52.8341 14.852 52.1141 16.988 52.1141 19.772C52.1141 20.66 52.1861 21.596 52.3301 22.58C52.7141 22.94 53.0621 23.204 53.3741 23.372C53.6861 23.54 54.0701 23.624 54.5261 23.624C55.7261 23.624 56.9021 23.072 58.0541 21.968C59.2301 20.864 60.3101 19.34 61.2941 17.396L61.9781 14.696C62.1941 13.76 62.7941 13.292 63.7781 13.292C64.5701 13.292 64.9661 13.604 64.9661 14.228C64.9661 14.3 64.9421 14.456 64.8941 14.696L61.1861 29.672L61.0421 30.284ZM50.7101 36.476C52.7021 36.476 54.2501 35.972 55.3541 34.964C56.4581 33.98 57.2621 32.768 57.7661 31.328C56.8061 31.28 56.0861 31.256 55.6061 31.256C53.1341 31.256 51.2381 31.568 49.9181 32.192C48.6221 32.816 47.9741 33.644 47.9741 34.676C47.9741 34.892 47.9861 35.096 48.0101 35.288C48.0581 35.48 48.1061 35.624 48.1541 35.72C48.6101 36.224 49.4621 36.476 50.7101 36.476ZM75.826 26.36C74.146 26.36 72.742 25.976 71.614 25.208C70.486 24.44 69.658 23.42 69.13 22.148C68.89 21.332 68.77 20.492 68.77 19.628C68.77 17.54 69.43 15.596 70.75 13.796C72.07 11.972 73.846 10.532 76.078 9.476C74.734 10.7 73.678 12.212 72.91 14.012C72.166 15.788 71.794 17.744 71.794 19.88C71.794 20.696 71.854 21.548 71.974 22.436C72.79 23.468 74.014 23.984 75.646 23.984C77.206 23.984 78.55 23.516 79.678 22.58C80.83 21.62 81.694 20.276 82.27 18.548C82.846 16.796 83.11 14.744 83.062 12.392C82.486 11.528 81.718 11.096 80.758 11.096C79.99 11.096 79.366 11.384 78.886 11.96C78.406 12.536 78.166 13.292 78.166 14.228C78.166 15.02 78.346 15.752 78.706 16.424C79.066 17.072 79.582 17.636 80.254 18.116C78.742 17.924 77.53 17.42 76.618 16.604C75.73 15.788 75.286 14.768 75.286 13.544C75.286 12.632 75.526 11.816 76.006 11.096C76.486 10.352 77.122 9.788 77.914 9.404C78.73 8.996 79.594 8.792 80.506 8.792C81.706 8.792 82.774 9.14 83.71 9.836C84.646 10.532 85.366 11.516 85.87 12.788C85.99 13.508 86.05 14.264 86.05 15.056C86.05 17.288 85.594 19.268 84.682 20.996C83.77 22.7 82.534 24.02 80.974 24.956C79.414 25.892 77.698 26.36 75.826 26.36ZM92.3447 22.976C92.2967 23.12 92.2727 23.252 92.2727 23.372C92.2727 23.756 92.5367 23.948 93.0647 23.948C93.9047 23.948 94.9967 23.504 96.3407 22.616C95.3567 23.72 94.3727 24.596 93.3887 25.244C92.4047 25.892 91.5287 26.216 90.7607 26.216C90.2567 26.216 89.8487 26.072 89.5367 25.784C89.2247 25.496 89.0687 25.1 89.0687 24.596C89.0687 24.38 89.1047 24.152 89.1767 23.912L92.2727 11.384H89.2847L89.8607 9.08H92.8487L93.4967 6.524C93.6167 6.068 93.8327 5.72 94.1447 5.48C94.4567 5.24 94.8527 5.12 95.3327 5.12C96.1247 5.12 96.5207 5.432 96.5207 6.056C96.5207 6.128 96.4967 6.284 96.4487 6.524L95.8007 9.08H99.1847L98.6087 11.384H95.2247L92.3447 22.976ZM111.099 29.672C111.075 29.864 111.015 30.068 110.919 30.284C112.455 30.932 113.907 31.808 115.275 32.912C114.651 32.456 113.055 32.024 110.487 31.616C109.599 33.968 108.351 35.756 106.743 36.98C105.159 38.228 103.275 38.852 101.091 38.852C99.7707 38.852 98.6547 38.636 97.7427 38.204C96.8067 37.772 96.0027 37.076 95.3307 36.116C95.0667 35.468 94.9347 34.796 94.9347 34.1C94.9347 33.092 95.3067 32.192 96.0507 31.4C96.7707 30.608 97.8027 29.984 99.1467 29.528C100.491 29.096 102.039 28.88 103.791 28.88C105.279 28.88 106.755 29.048 108.219 29.384L110.199 21.464C108.855 22.856 107.571 23.96 106.347 24.776C105.147 25.592 104.175 26 103.431 26C103.023 26 102.567 25.868 102.063 25.604C101.559 25.316 101.139 24.944 100.803 24.488C100.467 24.032 100.299 23.564 100.299 23.084C100.299 22.964 100.323 22.808 100.371 22.616L102.963 12.104C102.987 12.032 102.999 11.936 102.999 11.816C102.999 11.6 102.927 11.432 102.783 11.312C102.663 11.192 102.495 11.132 102.279 11.132C101.439 11.132 100.347 11.576 99.0027 12.464C99.9867 11.36 100.971 10.484 101.955 9.836C102.939 9.188 103.815 8.864 104.583 8.864C105.087 8.864 105.495 9.008 105.807 9.296C106.119 9.584 106.275 9.98 106.275 10.484C106.275 10.676 106.239 10.904 106.167 11.168L103.251 22.904C104.427 22.76 105.711 22.244 107.103 21.356C108.519 20.468 109.839 19.352 111.063 18.008L113.007 10.232C113.247 9.32 113.859 8.864 114.843 8.864C115.635 8.864 116.031 9.164 116.031 9.764C116.031 9.836 116.007 9.992 115.959 10.232L111.099 29.672ZM100.623 36.476C102.231 36.476 103.635 36.032 104.835 35.144C106.035 34.256 106.959 32.984 107.607 31.328C106.695 31.28 105.999 31.256 105.519 31.256C103.047 31.256 101.151 31.568 99.8307 32.192C98.5347 32.816 97.8867 33.644 97.8867 34.676C97.8867 34.892 97.8987 35.096 97.9227 35.288C97.9707 35.48 98.0187 35.624 98.0667 35.72C98.5227 36.224 99.3747 36.476 100.623 36.476ZM136.505 12.716C136.625 13.364 136.685 14.084 136.685 14.876C136.685 17.204 136.217 19.232 135.281 20.96C134.345 22.688 133.013 24.02 131.285 24.956C129.557 25.892 127.529 26.36 125.201 26.36C124.241 26.36 123.305 26.264 122.393 26.072L119.585 37.376C119.369 38.288 118.757 38.744 117.749 38.744C116.957 38.744 116.561 38.444 116.561 37.844C116.561 37.772 116.585 37.616 116.633 37.376L119.765 24.812C118.925 24.116 118.277 23.18 117.821 22.004C118.565 22.46 119.345 22.844 120.161 23.156L122.933 12.104C122.981 11.96 123.005 11.84 123.005 11.744C123.005 11.336 122.741 11.132 122.213 11.132C121.397 11.132 120.317 11.576 118.973 12.464C119.957 11.36 120.941 10.484 121.925 9.836C122.909 9.188 123.785 8.864 124.553 8.864C125.057 8.864 125.453 9.02 125.741 9.332C126.029 9.62 126.173 10.004 126.173 10.484C126.173 10.772 126.149 11 126.101 11.168L125.741 12.68C127.421 10.04 129.329 8.72 131.465 8.72C132.569 8.72 133.553 9.068 134.417 9.764C135.305 10.46 136.001 11.444 136.505 12.716ZM124.805 24.02C127.565 24.02 129.725 23.144 131.285 21.392C132.869 19.616 133.661 17.216 133.661 14.192C133.661 13.496 133.613 12.848 133.517 12.248C132.917 11.48 132.149 11.096 131.213 11.096C130.037 11.096 128.861 11.684 127.685 12.86C126.509 14.012 125.441 15.62 124.481 17.684L122.933 23.876C123.485 23.972 124.109 24.02 124.805 24.02ZM146.103 26.36C144.687 26.36 143.391 25.964 142.215 25.172C141.039 24.38 140.187 23.372 139.659 22.148C139.419 21.332 139.299 20.432 139.299 19.448C139.299 17.288 139.719 15.404 140.559 13.796C141.399 12.164 142.587 10.916 144.123 10.052C145.683 9.164 147.495 8.72 149.559 8.72C150.807 8.72 151.947 8.984 152.979 9.512C154.035 10.016 154.827 10.712 155.355 11.6C155.643 12.512 155.787 13.592 155.787 14.84C155.787 16.496 155.259 17.816 154.203 18.8C153.147 19.784 151.719 20.276 149.919 20.276C148.431 20.276 147.147 19.976 146.067 19.376C145.011 18.752 144.315 17.924 143.979 16.892C144.483 17.252 145.203 17.54 146.139 17.756C147.075 17.948 148.095 18.044 149.199 18.044C150.327 18.044 151.227 17.732 151.899 17.108C152.571 16.46 152.907 15.608 152.907 14.552C152.907 13.808 152.811 13.088 152.619 12.392C152.235 12.008 151.767 11.696 151.215 11.456C150.687 11.216 150.147 11.096 149.595 11.096C147.363 11.096 145.587 11.924 144.267 13.58C142.971 15.236 142.323 17.48 142.323 20.312C142.323 21.104 142.383 21.884 142.503 22.652C143.535 23.54 144.951 23.984 146.751 23.984C148.215 23.984 149.619 23.708 150.963 23.156C152.331 22.604 153.435 21.86 154.275 20.924C153.243 22.58 151.983 23.9 150.495 24.884C149.031 25.868 147.567 26.36 146.103 26.36Z" fill="black"/>
</svg>
